<?xml version="1.0" encoding="utf-8"?>
<!-- Generator: Adobe Illustrator 16.0.0, SVG Export Plug-In . SVG Version: 6.00 Build 0)  -->
<!DOCTYPE svg PUBLIC "-//W3C//DTD SVG 1.1//EN" "http://www.w3.org/Graphics/SVG/1.1/DTD/svg11.dtd">
<svg version="1.1" id="Calque_0_xA0_Image_1_" xmlns="http://www.w3.org/2000/svg" xmlns:xlink="http://www.w3.org/1999/xlink"
	 x="0px" y="0px" width="416px" height="500px" viewBox="0 0 416 500" enable-background="new 0 0 416 500" xml:space="preserve">
<g>
	<g>
		<path fill="#939393" d="M417,435c0,2.667,0,5.333,0,8c-3.391,15.006-11.059,19.936-28.697,18.421
			c-21.438-1.84-39.803-10.179-54.777-25.791c-7.748-8.078-13-17.673-17.266-27.876c-6.889-16.484-11.053-33.883-16.887-50.723
			c-1.746-5.039-3.379-10.116-5.484-15.021c-0.723-1.685-1.447-3.376-2.553-4.855c-0.816-1.09-1.759-2.121-3.297-1.812
			c-1.557,0.312-2.061,1.636-2.256,2.976c-0.387,2.637-1.022,5.261-1.068,7.919c-0.394,22.483-1.123,44.971,3.799,67.178
			c3.715,16.762,9.391,32.621,19.42,46.749c3.46,4.875,7.033,9.815,7.513,16.104c1.087,14.233-7.073,23.16-21.31,24.324
			c-11.492,0.939-19.396-4.611-26.832-12.36c-34.246-35.691-49.062-80.094-57.541-127.377c-0.5-2.791-0.83-5.667-0.219-8.437
			c-6.334,46.235-19.759,89.695-49.959,126.562c-5.079,6.199-11.01,11.589-16.789,17.112c-3.281,3.136-7.627,3.646-11.791,4.146
			c-6.467,0.774-13.103,0.658-18.775-2.858c-9.075-5.626-12.046-18.466-7.038-28.408c2.33-4.625,5.527-8.72,8.283-13.085
			c10.716-16.979,15.957-35.827,18.797-55.441c2.853-19.7,2.783-39.489,1.086-59.29c-0.057-0.664-0.113-1.33-0.263-1.98
			c-0.383-1.657-0.812-3.398-2.812-3.699c-1.731-0.261-2.715,1.047-3.54,2.329c-1.542,2.396-2.548,5.048-3.572,7.692
			c-6.809,17.577-11.182,35.951-17.569,53.666c-4.604,12.77-10.184,24.969-19.466,35.177
			c-13.173,14.485-29.422,23.171-48.718,26.174c-6.593,1.025-13.207,1.646-19.864,0.229c-9.886-2.104-13.773-5.968-15.726-15.921
			C1.638,443.855,1.617,442.84,1,442c0-2,0-4,0-6c0.633-13.771,10.32-18.329,21.617-21.266c1.613-0.419,3.175-1.014,4.728-1.621
			c1.71-0.67,3.363-1.462,4.956-2.375c7.492-4.299,12.271-10.576,14.079-19.091c3.743-17.627,5.177-35.602,8.087-53.353
			c3.2-19.513,7.87-38.507,19.265-55.21c9.622-14.105,22.627-23.285,39.02-27.777c9.208-2.523,10.433-4.485,9.068-13.816
			c-2.053-14.04-8.875-26.056-15.753-38.092c-8.943-15.648-17.764-31.437-21.497-49.292c-8.228-39.359-1.513-75.628,24.126-107.3
			c16.317-20.156,36.969-34.508,61.884-42.2c8.85-2.731,18.168-2.722,27.373-3.107c7.007,0,14.008,0,21.004,0
			c30.485-0.67,55.662,11.629,77.521,31.893c21.029,19.493,34.044,43.434,38.528,71.73c4.098,25.856,0.619,50.772-10.856,74.465
			c-5.309,10.959-11.354,21.508-17.309,32.115c-5.826,10.378-10.421,21.253-11.396,33.32c-0.502,6.195,0.399,7.701,6.517,9.148
			c10.875,2.573,20.817,6.955,29.487,14.097c11.801,9.723,19.398,22.26,24.41,36.498c5.789,16.449,8.396,33.582,10.673,50.775
			c1.442,10.897,2.854,21.791,4.717,32.636c2.427,14.125,10.925,22.335,24.094,26.512c3.487,1.106,7.091,1.781,10.471,3.309
			c5.993,2.708,9.969,6.771,10.47,13.668C416.361,432.754,416.15,434.027,417,435z"/>
		<path fill-rule="evenodd" clip-rule="evenodd" fill="#FEFEFE" d="M196.961,1.873c-41.688,4.966-74.429,24.768-95.975,60.802
			c-21.786,36.435-22.507,74.804-6.005,113.636c5.745,13.52,13.826,25.83,20.596,38.822c5.693,10.926,9.537,22.301,9.704,34.79
			c0.051,3.82-1.035,5.675-5.043,6.383c-26.336,4.649-43.303,20.636-53.251,44.795c-7.698,18.695-10.123,38.568-12.79,58.387
			c-1.354,10.064-2.879,20.108-4.528,30.129c-2.321,14.104-10.874,22.795-24.199,27.137c-3.48,1.134-7.052,1.995-10.498,3.221
			C7.354,422.685,4.229,429.409,1,436C1,292.5,1.017,149,0.906,5.5C0.903,1.751,1.75,0.896,5.5,0.904C69.333,1.038,133.167,1,197,1
			C197.754,1.325,197.741,1.616,196.961,1.873z"/>
		<path fill-rule="evenodd" clip-rule="evenodd" fill="#FEFEFE" d="M417,435c-3.369-10.221-10.743-15.101-21.035-17.497
			c-16.088-3.745-25.494-14.161-27.795-30.828c-2.551-18.483-5.12-36.973-8.176-55.377c-2.381-14.346-6.288-28.303-13.618-41.075
			c-10.78-18.783-26.695-30.393-48.119-33.887c-4.956-0.809-6.253-2.829-6.001-7.552c0.729-13.678,5.457-25.994,11.969-37.789
			c6.281-11.375,13.303-22.368,18.439-34.341c17.808-41.508,15.6-81.847-9.486-119.601C291.236,24.033,259.496,6.07,220.041,1.861
			C219.258,1.611,219.244,1.324,220,1c64.282,0,128.564,0.048,192.847-0.119c3.868-0.01,4.23,1.117,4.228,4.46
			C416.988,148.561,417,291.78,417,435z"/>
		<path fill-rule="evenodd" clip-rule="evenodd" fill="#FEFEFE" d="M1,442c0.337,0.356,0.852,0.656,0.986,1.078
			c4.034,12.679,13.462,16.509,25.708,15.704c29.852-1.963,52.657-15.393,67.335-41.745c7.521-13.504,11.331-28.442,15.914-43.06
			c3.191-10.177,6.146-20.434,10.108-30.345c1.541-3.854,3.454-7.57,5.368-11.26c1.253-2.417,3.584-2.741,6.057-2.451
			c2.489,0.292,2.614,2.247,2.789,4.073c3.072,32.064,3.041,63.927-6.594,95.101c-3.969,12.842-9.982,24.692-17.848,35.6
			c-3.708,5.142-6.245,10.667-5.194,17.229c2.485,15.518,20.231,23.014,33.108,13.848c6.961-4.956,12.664-11.324,18.182-17.796
			c23.062-27.048,35.869-58.995,44.191-93.049c2.969-12.148,5.228-24.438,6.933-36.828c0.149-1.087-0.183-2.377,1.383-3.378
			c1.345,2.385,1.379,5.011,1.742,7.519c4.699,32.382,13.254,63.595,28.267,92.826c9.467,18.434,22.079,34.465,37.382,48.408
			c5.496,5.008,11.773,7.505,19.258,5.928c14.592-3.075,21.475-18.707,13.803-31.512c-3.423-5.711-7.519-11.041-10.673-16.888
			c-13.167-24.403-17.169-50.936-17.498-78.237c-0.149-12.333,0.009-24.668,1.391-36.945c0.261-2.326-0.412-5.336,3.181-5.889
			c3.326-0.512,5.223,1.292,6.716,4.035c4.571,8.399,7.505,17.429,10.429,26.47c5.021,15.533,9.295,31.308,15.354,46.508
			c9.385,23.545,25.869,39.615,49.854,47.904c9.583,3.312,19.519,4.326,29.569,3.866c7.695-0.353,12.891-4.836,16.539-11.325
			c0.806-1.434,1.51-2.925,2.26-4.389c0,18.316-0.045,36.633,0.055,54.948c0.014,2.366-0.366,3.125-2.998,3.124
			c-136.705-0.082-273.41-0.082-410.115,0c-2.634,0.001-3.009-0.761-2.997-3.125C1.044,479.299,1,460.649,1,442z"/>
		<path fill-rule="evenodd" clip-rule="evenodd" fill="#E7E7E7" d="M220,1c0.014,0.287,0.027,0.574,0.041,0.861
			c-7.693,0.004-15.386,0.008-23.08,0.012C196.976,1.582,196.988,1.291,197,1C204.667,1,212.334,1,220,1z"/>
	</g>
</g>
</svg>
